<svg width="17" height="19" viewBox="0 0 17 19" fill="none" xmlns="http://www.w3.org/2000/svg">
<path d="M14.0625 12.75C13.3945 12.75 12.7781 12.9844 12.2953 13.3758L7.43906 9.8625C7.52038 9.41617 7.52038 8.95883 7.43906 8.5125L12.2953 4.99922C12.7781 5.39062 13.3945 5.625 14.0625 5.625C15.6141 5.625 16.875 4.36406 16.875 2.8125C16.875 1.26094 15.6141 0 14.0625 0C12.5109 0 11.25 1.26094 11.25 2.8125C11.25 3.08437 11.2875 3.34453 11.3602 3.59297L6.74766 6.93281C6.06328 6.02578 4.97578 5.4375 3.75 5.4375C1.67812 5.4375 0 7.11562 0 9.1875C0 11.2594 1.67812 12.9375 3.75 12.9375C4.97578 12.9375 6.06328 12.3492 6.74766 11.4422L11.3602 14.782C11.2875 15.0305 11.25 15.293 11.25 15.5625C11.25 17.1141 12.5109 18.375 14.0625 18.375C15.6141 18.375 16.875 17.1141 16.875 15.5625C16.875 14.0109 15.6141 12.75 14.0625 12.75ZM14.0625 1.59375C14.7352 1.59375 15.2812 2.13984 15.2812 2.8125C15.2812 3.48516 14.7352 4.03125 14.0625 4.03125C13.3898 4.03125 12.8438 3.48516 12.8438 2.8125C12.8438 2.13984 13.3898 1.59375 14.0625 1.59375ZM3.75 11.25C2.61328 11.25 1.6875 10.3242 1.6875 9.1875C1.6875 8.05078 2.61328 7.125 3.75 7.125C4.88672 7.125 5.8125 8.05078 5.8125 9.1875C5.8125 10.3242 4.88672 11.25 3.75 11.25ZM14.0625 16.7812C13.3898 16.7812 12.8438 16.2352 12.8438 15.5625C12.8438 14.8898 13.3898 14.3438 14.0625 14.3438C14.7352 14.3438 15.2812 14.8898 15.2812 15.5625C15.2812 16.2352 14.7352 16.7812 14.0625 16.7812Z" fill="black"/>
</svg>
