<svg width="24" height="25" viewBox="0 0 24 25" fill="none" xmlns="http://www.w3.org/2000/svg">
<path d="M22.5782 20.3C21.9887 18.9037 21.1332 17.6353 20.0595 16.5656C18.9889 15.4928 17.7208 14.6375 16.3251 14.0469C16.3126 14.0406 16.3001 14.0375 16.2876 14.0312C18.2345 12.625 19.5001 10.3344 19.5001 7.75C19.5001 3.46875 16.0313 0 11.7501 0C7.46883 0 4.00008 3.46875 4.00008 7.75C4.00008 10.3344 5.2657 12.625 7.21258 14.0344C7.20008 14.0406 7.18758 14.0437 7.17508 14.05C5.77508 14.6406 4.51883 15.4875 3.4407 16.5688C2.36792 17.6393 1.51259 18.9074 0.921953 20.3031C0.34171 21.6695 0.0287717 23.1345 7.81438e-05 24.6187C-0.000755935 24.6521 0.00509415 24.6853 0.0172839 24.7163C0.0294736 24.7474 0.0477562 24.7757 0.0710544 24.7996C0.0943526 24.8235 0.122195 24.8424 0.152941 24.8554C0.183687 24.8683 0.216715 24.875 0.250078 24.875H2.12508C2.26258 24.875 2.37195 24.7656 2.37508 24.6313C2.43758 22.2188 3.40633 19.9594 5.11883 18.2469C6.8907 16.475 9.24383 15.5 11.7501 15.5C14.2563 15.5 16.6095 16.475 18.3813 18.2469C20.0938 19.9594 21.0626 22.2188 21.1251 24.6313C21.1282 24.7688 21.2376 24.875 21.3751 24.875H23.2501C23.2834 24.875 23.3165 24.8683 23.3472 24.8554C23.378 24.8424 23.4058 24.8235 23.4291 24.7996C23.4524 24.7757 23.4707 24.7474 23.4829 24.7163C23.4951 24.6853 23.5009 24.6521 23.5001 24.6187C23.4688 23.125 23.1595 21.6719 22.5782 20.3ZM11.7501 13.125C10.3157 13.125 8.9657 12.5656 7.95008 11.55C6.93445 10.5344 6.37508 9.18437 6.37508 7.75C6.37508 6.31563 6.93445 4.96562 7.95008 3.95C8.9657 2.93437 10.3157 2.375 11.7501 2.375C13.1845 2.375 14.5345 2.93437 15.5501 3.95C16.5657 4.96562 17.1251 6.31563 17.1251 7.75C17.1251 9.18437 16.5657 10.5344 15.5501 11.55C14.5345 12.5656 13.1845 13.125 11.7501 13.125Z" fill="#848484"/>
</svg>
