<svg width="24" height="26" viewBox="0 0 24 26" fill="none" xmlns="http://www.w3.org/2000/svg">
<path d="M10.07 0.703241C10.6105 0.249021 11.294 0 12 0C12.706 0 13.3895 0.249021 13.93 0.703241L22.93 8.27124C23.265 8.55275 23.5344 8.90414 23.7192 9.30077C23.9041 9.6974 23.9999 10.1297 24 10.5672V23.1372C24 23.6677 23.7893 24.1764 23.4142 24.5515C23.0391 24.9265 22.5304 25.1372 22 25.1372H16.5C15.9696 25.1372 15.4609 24.9265 15.0858 24.5515C14.7107 24.1764 14.5 23.6677 14.5 23.1372V16.1372H9.5V23.1372C9.5 23.6677 9.28929 24.1764 8.91421 24.5515C8.53914 24.9265 8.03043 25.1372 7.5 25.1372H2C1.46957 25.1372 0.960859 24.9265 0.585786 24.5515C0.210714 24.1764 0 23.6677 0 23.1372V10.5662C0.00011066 10.1287 0.0959458 9.6964 0.280785 9.29977C0.465624 8.90314 0.734993 8.55175 1.07 8.27024L10.07 0.702241V0.703241ZM12.644 2.23324C12.4637 2.08148 12.2356 1.99827 12 1.99827C11.7644 1.99827 11.5363 2.08148 11.356 2.23324L2.356 9.80324C2.24475 9.89689 2.15527 10.0137 2.09378 10.1454C2.0323 10.2772 2.00029 10.4208 2 10.5662V23.1362H7.5V16.1362C7.5 15.6058 7.71071 15.0971 8.08579 14.722C8.46086 14.347 8.96957 14.1362 9.5 14.1362H14.5C15.0304 14.1362 15.5391 14.347 15.9142 14.722C16.2893 15.0971 16.5 15.6058 16.5 16.1362V23.1362H22V10.5662C22 10.4205 21.9681 10.2765 21.9066 10.1444C21.8451 10.0122 21.7555 9.89511 21.644 9.80124L12.644 2.23324Z" fill="#848484"/>
</svg>
