<svg width="15" height="17" viewBox="0 0 15 17" fill="none" xmlns="http://www.w3.org/2000/svg">
<path d="M7.4375 1.0625C8.14198 1.0625 8.81761 1.34235 9.31575 1.8405C9.8139 2.33864 10.0938 3.01427 10.0938 3.71875V4.25H4.78125V3.71875C4.78125 3.01427 5.0611 2.33864 5.55925 1.8405C6.05739 1.34235 6.73302 1.0625 7.4375 1.0625ZM11.1562 4.25V3.71875C11.1562 2.73248 10.7645 1.7866 10.0671 1.0892C9.36965 0.391796 8.42377 0 7.4375 0C6.45123 0 5.50535 0.391796 4.80795 1.0892C4.11055 1.7866 3.71875 2.73248 3.71875 3.71875V4.25H0V14.875C0 15.4386 0.223883 15.9791 0.622398 16.3776C1.02091 16.7761 1.56141 17 2.125 17H12.75C13.3136 17 13.8541 16.7761 14.2526 16.3776C14.6511 15.9791 14.875 15.4386 14.875 14.875V4.25H11.1562ZM1.0625 5.3125H13.8125V14.875C13.8125 15.1568 13.7006 15.427 13.5013 15.6263C13.302 15.8256 13.0318 15.9375 12.75 15.9375H2.125C1.84321 15.9375 1.57296 15.8256 1.3737 15.6263C1.17444 15.427 1.0625 15.1568 1.0625 14.875V5.3125Z" fill="white"/>
</svg>
