<svg width="45" height="49" viewBox="0 0 45 49" fill="none" xmlns="http://www.w3.org/2000/svg">
<path d="M20.2343 2.0869C20.9274 1.70198 21.7072 1.5 22.5 1.5C23.2928 1.5 24.0726 1.70198 24.7657 2.0869L42.3007 11.8262C42.6642 12.0284 42.9671 12.3241 43.178 12.6826C43.3888 13.0412 43.5 13.4496 43.5 13.8656V33.0806C43.4998 33.9127 43.2771 34.7297 42.8549 35.4469C42.4328 36.164 41.8265 36.7552 41.099 37.1592L24.7657 46.2359C24.0726 46.6208 23.2928 46.8228 22.5 46.8228C21.7072 46.8228 20.9274 46.6208 20.2343 46.2359L3.901 37.1592C3.17383 36.7554 2.56781 36.1646 2.14567 35.4479C1.72353 34.7312 1.50061 33.9147 1.5 33.0829V13.8656C1.49998 13.4496 1.61117 13.0412 1.82204 12.6826C2.0329 12.3241 2.33579 12.0284 2.69933 11.8262L20.2367 2.0869H20.2343Z" stroke="#444E66" stroke-width="3" stroke-linecap="round" stroke-linejoin="round"/>
<path d="M22.5 24.1608V47.4941M1.5 12.4941L22.5 24.1608L1.5 12.4941ZM22.5 24.1608L43.5 12.4941L22.5 24.1608Z" stroke="#444E66" stroke-width="3" stroke-linejoin="round"/>
<path d="M12 18.3273L33 6.66064" stroke="#444E66" stroke-width="3" stroke-linecap="round" stroke-linejoin="round"/>
<path d="M8.5 24.925L15.5 28.8264" stroke="#444E66" stroke-width="3" stroke-linecap="round" stroke-linejoin="round"/>
</svg>
