<svg width="49" height="35" viewBox="0 0 49 35" fill="none" xmlns="http://www.w3.org/2000/svg">
<path d="M40.25 17.5V15.75C40.25 11.5728 38.5906 7.56677 35.6369 4.61307C32.6832 1.65937 28.6772 0 24.5 0C20.3228 0 16.3168 1.65937 13.3631 4.61307C10.4094 7.56677 8.75 11.5728 8.75 15.75V17.5C6.42936 17.5 4.20376 18.4219 2.56282 20.0628C0.921872 21.7038 0 23.9294 0 26.25C0 28.5706 0.921872 30.7962 2.56282 32.4372C4.20376 34.0781 6.42936 35 8.75 35H12.25V15.75C12.25 12.5011 13.5406 9.38526 15.8379 7.08794C18.1353 4.79062 21.2511 3.5 24.5 3.5C27.7489 3.5 30.8647 4.79062 33.1621 7.08794C35.4594 9.38526 36.75 12.5011 36.75 15.75V35H40.25C42.5706 35 44.7962 34.0781 46.4372 32.4372C48.0781 30.7962 49 28.5706 49 26.25C49 23.9294 48.0781 21.7038 46.4372 20.0628C44.7962 18.4219 42.5706 17.5 40.25 17.5ZM3.5 26.25C3.5 24.8576 4.05312 23.5223 5.03769 22.5377C6.02226 21.5531 7.35761 21 8.75 21V31.5C7.35761 31.5 6.02226 30.9469 5.03769 29.9623C4.05312 28.9777 3.5 27.6424 3.5 26.25ZM40.25 31.5V21C41.6424 21 42.9777 21.5531 43.9623 22.5377C44.9469 23.5223 45.5 24.8576 45.5 26.25C45.5 27.6424 44.9469 28.9777 43.9623 29.9623C42.9777 30.9469 41.6424 31.5 40.25 31.5Z" fill="#444E66"/>
</svg>
