<svg width="47" height="47" viewBox="0 0 47 47" fill="none" xmlns="http://www.w3.org/2000/svg">
<path d="M43.7229 23.3053L46.2989 18.8533C46.6085 18.3176 46.6927 17.681 46.533 17.0833C46.3733 16.4856 45.9828 15.9758 45.4472 15.6659L40.9906 13.0899V7.9566C40.9906 7.33776 40.7447 6.74427 40.3072 6.30669C39.8696 5.8691 39.2761 5.62327 38.6572 5.62327H33.5262L30.9526 1.16894C30.6417 0.634408 30.1329 0.243782 29.5362 0.0816025C29.2403 0.00137291 28.9314 -0.0193146 28.6274 0.0207389C28.3233 0.0607923 28.0303 0.16079 27.7652 0.314936L23.3086 2.89094L18.8519 0.312602C18.316 0.0031971 17.6791 -0.0806503 17.0814 0.0795047C16.4836 0.23966 15.974 0.630699 15.6646 1.1666L13.0886 5.62327H7.95758C7.33874 5.62327 6.74525 5.8691 6.30766 6.30669C5.87008 6.74427 5.62424 7.33776 5.62424 7.9566V13.0876L1.16758 15.6636C0.901653 15.8166 0.668573 16.0206 0.481729 16.2639C0.294885 16.5072 0.157959 16.785 0.078819 17.0814C-0.000321038 17.3778 -0.0201157 17.6869 0.0205722 17.991C0.0612601 18.2951 0.161628 18.5881 0.315911 18.8533L2.89191 23.3053L0.315911 27.7573C0.00788492 28.2934 -0.0756876 28.9296 0.0834141 29.5271C0.242516 30.1246 0.631388 30.635 1.16524 30.9469L5.62191 33.5229V38.6539C5.62191 39.2728 5.86774 39.8663 6.30533 40.3038C6.74291 40.7414 7.33641 40.9873 7.95524 40.9873H13.0886L15.6646 45.4439C15.8712 45.7971 16.1661 46.0903 16.5204 46.2949C16.8747 46.4995 17.2761 46.6083 17.6852 46.6106C18.0912 46.6106 18.4949 46.5033 18.8542 46.2956L23.3062 43.7196L27.7629 46.2956C28.2987 46.6046 28.9351 46.6884 29.5327 46.5288C30.1302 46.3691 30.64 45.979 30.9502 45.4439L33.5239 40.9873H38.6549C39.2738 40.9873 39.8672 40.7414 40.3048 40.3038C40.7424 39.8663 40.9882 39.2728 40.9882 38.6539V33.5229L45.4449 30.9469C45.7104 30.7935 45.943 30.5893 46.1295 30.3459C46.316 30.1026 46.4527 29.8248 46.5318 29.5286C46.6109 29.2324 46.6308 28.9235 46.5905 28.6195C46.5501 28.3156 46.4502 28.0226 46.2966 27.7573L43.7229 23.3053ZM17.4729 11.6153C18.4015 11.6156 19.2919 11.9847 19.9483 12.6416C20.6046 13.2984 20.9732 14.189 20.9729 15.1176C20.9726 16.0462 20.6034 16.9366 19.9466 17.593C19.2898 18.2493 18.3991 18.6179 17.4706 18.6176C16.542 18.6173 15.6516 18.2481 14.9952 17.5913C14.3388 16.9345 13.9703 16.0438 13.9706 15.1153C13.9709 14.1867 14.3401 13.2963 14.9969 12.6399C15.6537 11.9835 16.5443 11.615 17.4729 11.6153ZM18.1729 34.0153L14.4396 31.2176L28.4396 12.5509L32.1729 15.3486L18.1729 34.0153ZM29.1396 34.9486C28.6798 34.9484 28.2246 34.8577 27.7998 34.6816C27.3751 34.5056 26.9892 34.2475 26.6642 33.9223C26.3392 33.5971 26.0814 33.211 25.9056 32.7862C25.7298 32.3614 25.6394 31.906 25.6396 31.4463C25.6397 30.9865 25.7304 30.5312 25.9065 30.1065C26.0826 29.6818 26.3406 29.2959 26.6659 28.9709C26.9911 28.6459 27.3771 28.3881 27.802 28.2123C28.2268 28.0365 28.6821 27.9461 29.1419 27.9463C30.0705 27.9466 30.9609 28.3157 31.6173 28.9726C32.2736 29.6294 32.6422 30.52 32.6419 31.4486C32.6416 32.3772 32.2724 33.2676 31.6156 33.924C30.9588 34.5803 30.0681 34.9489 29.1396 34.9486Z" fill="#444E66"/>
</svg>
