<svg width="44" height="39" viewBox="0 0 44 39" fill="none" xmlns="http://www.w3.org/2000/svg">
<path d="M43.6345 18.5605L38.3845 6.3105C38.2497 5.99564 38.0255 5.72728 37.7396 5.53875C37.4537 5.35022 37.1187 5.24981 36.7762 5.25H31.5262V1.75C31.5262 1.28587 31.3418 0.840752 31.0137 0.512564C30.6855 0.184375 30.2404 0 29.7762 0H1.77622V3.5H28.0262V25.473C27.2288 25.936 26.5309 26.5524 25.9729 27.2864C25.4148 28.0205 25.0076 28.8578 24.7747 29.75H13.7777C13.3518 28.1003 12.3388 26.6627 10.9287 25.7064C9.51859 24.7502 7.80815 24.3411 6.11797 24.5558C4.4278 24.7705 2.87394 25.5942 1.74766 26.8726C0.621376 28.151 0 29.7962 0 31.5C0 33.2038 0.621376 34.849 1.74766 36.1274C2.87394 37.4058 4.4278 38.2295 6.11797 38.4442C7.80815 38.6589 9.51859 38.2498 10.9287 37.2936C12.3388 36.3373 13.3518 34.8997 13.7777 33.25H24.7747C25.1554 34.7519 26.026 36.084 27.2488 37.0356C28.4716 37.9871 29.9768 38.5037 31.5262 38.5037C33.0756 38.5037 34.5808 37.9871 35.8036 37.0356C37.0264 36.084 37.897 34.7519 38.2777 33.25H42.0262C42.4904 33.25 42.9355 33.0656 43.2637 32.7374C43.5919 32.4093 43.7762 31.9641 43.7762 31.5V19.25C43.7763 19.0129 43.7281 18.7783 43.6345 18.5605ZM7.02622 35C6.33399 35 5.6573 34.7947 5.08173 34.4101C4.50615 34.0256 4.05755 33.4789 3.79264 32.8394C3.52774 32.1999 3.45842 31.4961 3.59347 30.8172C3.72852 30.1383 4.06186 29.5146 4.55135 29.0251C5.04083 28.5356 5.66447 28.2023 6.3434 28.0673C7.02234 27.9322 7.72607 28.0015 8.36561 28.2664C9.00515 28.5313 9.55178 28.9799 9.93636 29.5555C10.3209 30.1311 10.5262 30.8078 10.5262 31.5C10.5253 32.428 10.1562 33.3177 9.50007 33.9739C8.84389 34.63 7.95419 34.9991 7.02622 35ZM31.5262 8.75H35.6212L39.3732 17.5H31.5262V8.75ZM31.5262 35C30.834 35 30.1573 34.7947 29.5817 34.4101C29.0062 34.0256 28.5576 33.4789 28.2926 32.8394C28.0277 32.1999 27.9584 31.4961 28.0935 30.8172C28.2285 30.1383 28.5619 29.5146 29.0513 29.0251C29.5408 28.5356 30.1645 28.2023 30.8434 28.0673C31.5223 27.9322 32.2261 28.0015 32.8656 28.2664C33.5052 28.5313 34.0518 28.9799 34.4364 29.5555C34.8209 30.1311 35.0262 30.8078 35.0262 31.5C35.0253 32.428 34.6562 33.3177 34.0001 33.9739C33.3439 34.63 32.4542 34.9991 31.5262 35ZM40.2762 29.75H38.2777C37.8922 28.251 37.0202 26.9223 35.7984 25.9722C34.5766 25.0221 33.074 24.5043 31.5262 24.5V21H40.2762V29.75Z" fill="#444E66"/>
</svg>
