<svg width="49" height="39" viewBox="0 0 49 39" fill="none" xmlns="http://www.w3.org/2000/svg">
<path d="M3.5 17.5H24.5V21H3.5V17.5Z" fill="#444E66"/>
<path d="M0 8.75H17.5V12.25H0V8.75Z" fill="#444E66"/>
<path d="M48.8581 18.5605L43.6081 6.3105C43.4734 5.99564 43.2491 5.72728 42.9632 5.53875C42.6773 5.35022 42.3423 5.24981 41.9999 5.25H36.7499V1.75C36.7499 1.28587 36.5655 0.840752 36.2373 0.512564C35.9091 0.184375 35.464 0 34.9999 0H6.99985V3.5H33.2499V25.473C32.4524 25.936 31.7546 26.5524 31.1965 27.2864C30.6384 28.0205 30.2312 28.8578 29.9984 29.75H19.0014C18.5754 28.1003 17.5625 26.6627 16.1523 25.7064C14.7422 24.7502 13.0318 24.3411 11.3416 24.5558C9.65143 24.7705 8.09757 25.5942 6.97129 26.8726C5.84501 28.151 5.22363 29.7962 5.22363 31.5C5.22363 33.2038 5.84501 34.849 6.97129 36.1274C8.09757 37.4058 9.65143 38.2295 11.3416 38.4442C13.0318 38.6589 14.7422 38.2498 16.1523 37.2936C17.5625 36.3373 18.5754 34.8997 19.0014 33.25H29.9984C30.379 34.7519 31.2497 36.084 32.4725 37.0356C33.6953 37.9871 35.2004 38.5037 36.7499 38.5037C38.2993 38.5037 39.8044 37.9871 41.0272 37.0356C42.25 36.084 43.1207 34.7519 43.5014 33.25H47.2499C47.714 33.25 48.1591 33.0656 48.4873 32.7374C48.8155 32.4093 48.9999 31.9641 48.9999 31.5V19.25C48.9999 19.0129 48.9517 18.7783 48.8581 18.5605ZM12.2499 35C11.5576 35 10.8809 34.7947 10.3054 34.4101C9.72979 34.0256 9.28118 33.4789 9.01627 32.8394C8.75137 32.1999 8.68206 31.4961 8.8171 30.8172C8.95215 30.1383 9.2855 29.5146 9.77498 29.0251C10.2645 28.5356 10.8881 28.2023 11.567 28.0673C12.246 27.9322 12.9497 28.0015 13.5892 28.2664C14.2288 28.5313 14.7754 28.9799 15.16 29.5555C15.5446 30.1311 15.7499 30.8078 15.7499 31.5C15.7489 32.428 15.3799 33.3177 14.7237 33.9739C14.0675 34.63 13.1778 34.9991 12.2499 35ZM36.7499 8.75H40.8449L44.5969 17.5H36.7499V8.75ZM36.7499 35C36.0576 35 35.3809 34.7947 34.8054 34.4101C34.2298 34.0256 33.7812 33.4789 33.5163 32.8394C33.2514 32.1999 33.1821 31.4961 33.3171 30.8172C33.4522 30.1383 33.7855 29.5146 34.275 29.0251C34.7645 28.5356 35.3881 28.2023 36.067 28.0673C36.746 27.9322 37.4497 28.0015 38.0892 28.2664C38.7288 28.5313 39.2754 28.9799 39.66 29.5555C40.0446 30.1311 40.2499 30.8078 40.2499 31.5C40.2489 32.428 39.8799 33.3177 39.2237 33.9739C38.5675 34.63 37.6778 34.9991 36.7499 35ZM45.4999 29.75H43.5014C43.1159 28.251 42.2439 26.9223 41.022 25.9722C39.8002 25.0221 38.2976 24.5043 36.7499 24.5V21H45.4999V29.75Z" fill="#444E66"/>
</svg>
