<svg width="20" height="23" viewBox="0 0 20 23" fill="none" xmlns="http://www.w3.org/2000/svg">
<path d="M6.25 2.50306C5.91848 2.50306 5.60054 2.63476 5.36612 2.86918C5.1317 3.1036 5 3.42154 5 3.75306C5 4.08458 5.1317 4.40253 5.36612 4.63695C5.60054 4.87137 5.91848 5.00306 6.25 5.00306C6.58152 5.00306 6.89946 4.87137 7.13388 4.63695C7.3683 4.40253 7.5 4.08458 7.5 3.75306C7.5 3.42154 7.3683 3.1036 7.13388 2.86918C6.89946 2.63476 6.58152 2.50306 6.25 2.50306ZM2.7125 2.50306C2.97075 1.77115 3.44967 1.13736 4.08325 0.68905C4.71683 0.240745 5.47386 0 6.25 0C7.02614 0 7.78317 0.240745 8.41675 0.68905C9.05033 1.13736 9.52925 1.77115 9.7875 2.50306H18.75C19.0815 2.50306 19.3995 2.63476 19.6339 2.86918C19.8683 3.1036 20 3.42154 20 3.75306C20 4.08458 19.8683 4.40253 19.6339 4.63695C19.3995 4.87137 19.0815 5.00306 18.75 5.00306H9.7875C9.52925 5.73498 9.05033 6.36877 8.41675 6.81708C7.78317 7.26538 7.02614 7.50613 6.25 7.50613C5.47386 7.50613 4.71683 7.26538 4.08325 6.81708C3.44967 6.36877 2.97075 5.73498 2.7125 5.00306H1.25C0.918479 5.00306 0.600537 4.87137 0.366117 4.63695C0.131696 4.40253 0 4.08458 0 3.75306C0 3.42154 0.131696 3.1036 0.366117 2.86918C0.600537 2.63476 0.918479 2.50306 1.25 2.50306H2.7125ZM13.75 10.0031C13.4185 10.0031 13.1005 10.1348 12.8661 10.3692C12.6317 10.6036 12.5 10.9215 12.5 11.2531C12.5 11.5846 12.6317 11.9025 12.8661 12.1369C13.1005 12.3714 13.4185 12.5031 13.75 12.5031C14.0815 12.5031 14.3995 12.3714 14.6339 12.1369C14.8683 11.9025 15 11.5846 15 11.2531C15 10.9215 14.8683 10.6036 14.6339 10.3692C14.3995 10.1348 14.0815 10.0031 13.75 10.0031ZM10.2125 10.0031C10.4708 9.27115 10.9497 8.63735 11.5833 8.18905C12.2168 7.74074 12.9739 7.5 13.75 7.5C14.5261 7.5 15.2832 7.74074 15.9167 8.18905C16.5503 8.63735 17.0292 9.27115 17.2875 10.0031H18.75C19.0815 10.0031 19.3995 10.1348 19.6339 10.3692C19.8683 10.6036 20 10.9215 20 11.2531C20 11.5846 19.8683 11.9025 19.6339 12.1369C19.3995 12.3714 19.0815 12.5031 18.75 12.5031H17.2875C17.0292 13.235 16.5503 13.8688 15.9167 14.3171C15.2832 14.7654 14.5261 15.0061 13.75 15.0061C12.9739 15.0061 12.2168 14.7654 11.5833 14.3171C10.9497 13.8688 10.4708 13.235 10.2125 12.5031H1.25C0.918479 12.5031 0.600537 12.3714 0.366117 12.1369C0.131696 11.9025 0 11.5846 0 11.2531C0 10.9215 0.131696 10.6036 0.366117 10.3692C0.600537 10.1348 0.918479 10.0031 1.25 10.0031H10.2125ZM6.25 17.5031C5.91848 17.5031 5.60054 17.6348 5.36612 17.8692C5.1317 18.1036 5 18.4215 5 18.7531C5 19.0846 5.1317 19.4025 5.36612 19.6369C5.60054 19.8714 5.91848 20.0031 6.25 20.0031C6.58152 20.0031 6.89946 19.8714 7.13388 19.6369C7.3683 19.4025 7.5 19.0846 7.5 18.7531C7.5 18.4215 7.3683 18.1036 7.13388 17.8692C6.89946 17.6348 6.58152 17.5031 6.25 17.5031ZM2.7125 17.5031C2.97075 16.7711 3.44967 16.1374 4.08325 15.689C4.71683 15.2407 5.47386 15 6.25 15C7.02614 15 7.78317 15.2407 8.41675 15.689C9.05033 16.1374 9.52925 16.7711 9.7875 17.5031H18.75C19.0815 17.5031 19.3995 17.6348 19.6339 17.8692C19.8683 18.1036 20 18.4215 20 18.7531C20 19.0846 19.8683 19.4025 19.6339 19.6369C19.3995 19.8714 19.0815 20.0031 18.75 20.0031H9.7875C9.52925 20.735 9.05033 21.3688 8.41675 21.8171C7.78317 22.2654 7.02614 22.5061 6.25 22.5061C5.47386 22.5061 4.71683 22.2654 4.08325 21.8171C3.44967 21.3688 2.97075 20.735 2.7125 20.0031H1.25C0.918479 20.0031 0.600537 19.8714 0.366117 19.6369C0.131696 19.4025 0 19.0846 0 18.7531C0 18.4215 0.131696 18.1036 0.366117 17.8692C0.600537 17.6348 0.918479 17.5031 1.25 17.5031H2.7125Z" fill="black"/>
</svg>
