<svg width="29" height="29" viewBox="0 0 29 29" fill="none" xmlns="http://www.w3.org/2000/svg">
<path d="M10.7383 25.7778C11.7393 25.7778 12.5508 24.9663 12.5508 23.9653C12.5508 22.9643 11.7393 22.1528 10.7383 22.1528C9.73727 22.1528 8.92578 22.9643 8.92578 23.9653C8.92578 24.9663 9.73727 25.7778 10.7383 25.7778Z" fill="#272727"/>
<path d="M21.75 25.7778C22.751 25.7778 23.5625 24.9663 23.5625 23.9653C23.5625 22.9643 22.751 22.1528 21.75 22.1528C20.749 22.1528 19.9375 22.9643 19.9375 23.9653C19.9375 24.9663 20.749 25.7778 21.75 25.7778Z" fill="#272727"/>
<path d="M26.648 4.32592C26.573 4.23351 26.4785 4.15886 26.3713 4.10732C26.264 4.05579 26.1467 4.02865 26.0277 4.02786H9.25605L9.77967 5.63897H24.9724L22.8216 15.3056H10.7383L7.05689 3.64925C7.01707 3.52557 6.94792 3.41335 6.85534 3.32217C6.76276 3.23099 6.6495 3.16357 6.52522 3.12564L3.22244 2.11064C3.12089 2.07943 3.01418 2.06853 2.90841 2.07857C2.80264 2.0886 2.69989 2.11936 2.60601 2.16911C2.41642 2.26957 2.2745 2.44123 2.21147 2.64633C2.14845 2.85144 2.16948 3.07317 2.26994 3.26277C2.3704 3.45236 2.54207 3.59428 2.74717 3.65731L5.63911 4.54342L9.33661 16.224L8.0155 17.3034L7.91078 17.4081C7.58399 17.7847 7.39877 18.2635 7.387 18.762C7.37524 19.2604 7.53768 19.7474 7.84633 20.139C8.06589 20.406 8.3449 20.6179 8.66102 20.7578C8.97715 20.8977 9.32162 20.9616 9.66689 20.9445H23.1116C23.3253 20.9445 23.5302 20.8597 23.6812 20.7086C23.8323 20.5575 23.9172 20.3526 23.9172 20.139C23.9172 19.9253 23.8323 19.7204 23.6812 19.5694C23.5302 19.4183 23.3253 19.3334 23.1116 19.3334H9.538C9.44524 19.3302 9.35486 19.3032 9.2756 19.2549C9.19633 19.2066 9.13086 19.1387 9.08551 19.0577C9.04016 18.9767 9.01646 18.8854 9.0167 18.7926C9.01694 18.6998 9.04112 18.6086 9.08689 18.5279L11.0283 16.9167H23.4661C23.6523 16.9213 23.8343 16.8612 23.9812 16.7466C24.1281 16.6321 24.2307 16.4701 24.2716 16.2884L26.8252 5.01064C26.8497 4.89055 26.8465 4.76645 26.8158 4.64779C26.7851 4.52913 26.7277 4.41905 26.648 4.32592Z" fill="#272727"/>
</svg>
