<svg width="23" height="16" viewBox="0 0 23 16" fill="none" xmlns="http://www.w3.org/2000/svg">
<path fill-rule="evenodd" clip-rule="evenodd" d="M15.4752 2.01212L17.3287 5.71919L20.1212 7.58085V11.0667H18.9434C18.5291 9.89443 17.4111 9.05458 16.097 9.05458C14.7829 9.05458 13.6649 9.89443 13.2506 11.0667H8.88279C8.46845 9.89443 7.35048 9.05458 6.03636 9.05458C4.72224 9.05458 3.60427 9.89443 3.18993 11.0667H2.01212V2.01212H15.4752ZM20.1212 13.0788H18.9434C18.5291 14.2511 17.4111 15.0909 16.097 15.0909C14.7828 15.0909 13.6649 14.2511 13.2505 13.0788H8.88281C8.46849 14.2511 7.35051 15.0909 6.03636 15.0909C4.72221 15.0909 3.60423 14.2511 3.1899 13.0788H2.01212C0.900857 13.0788 0 12.1779 0 11.0667V2.01212C0 0.900857 0.900857 0 2.01212 0H15.4752C16.2373 0 16.934 0.430599 17.2749 1.11227L18.8895 4.34141L22.1333 6.504V11.0667C22.1333 12.1779 21.2325 13.0788 20.1212 13.0788ZM7.04243 12.0727C7.04243 12.6284 6.592 13.0788 6.03637 13.0788C5.48074 13.0788 5.03031 12.6284 5.03031 12.0727C5.03031 11.5171 5.48074 11.0667 6.03637 11.0667C6.592 11.0667 7.04243 11.5171 7.04243 12.0727ZM17.103 12.0727C17.103 12.6284 16.6526 13.0788 16.0969 13.0788C15.5413 13.0788 15.0909 12.6284 15.0909 12.0727C15.0909 11.5171 15.5413 11.0667 16.0969 11.0667C16.6526 11.0667 17.103 11.5171 17.103 12.0727Z" fill="#272727"/>
</svg>
