<svg width="530" height="88" viewBox="0 0 530 88" fill="none" xmlns="http://www.w3.org/2000/svg">
<g clip-path="url(#clip0_1_4646)">
<path d="M517.552 0.729028L505.105 0.687432V13.9128L517.552 13.8471V87.2929H530V0.729028H517.552ZM489.662 21.7701C489.662 10.2195 484.167 0 471.22 0C460.838 0 452.541 8.50094 452.541 18.8496V25.6561H464.987V18.5913C464.987 14.5784 467.419 12.3869 471.092 12.3869C477.194 12.3869 477.194 17.6039 477.194 21.9847C477.194 26.7288 477.194 29.1545 475.001 33.4061L452.541 75.5912V87.271H489.662V74.8622H467.202L485.514 39.7178C489.423 32.3312 489.662 30.1419 489.662 21.7701ZM372.519 39.396H365.438V12.4088H371.912C381.078 12.4088 382.533 17.153 382.533 25.9122C382.533 34.5226 381.209 39.396 372.519 39.396ZM395.001 26.1487C395.001 9.36133 387.789 0.729028 373.02 0.729028H352.991V87.2929H365.438V50.3445H372.889L384.489 87.3148H397.673L384.25 47.7896C392.177 43.4089 395.001 36.1099 395.001 26.1487ZM296.668 87.2929H333.792V74.8841H309.136V49.4863H330.62V37.8065H309.136V12.4088H333.792V0.729028H296.668V87.2929ZM254.855 61.1639H254.616L244.733 0.729028H231.549L249.251 87.2929H260.242L278.075 0.729028H264.891L254.855 61.1639ZM178.439 87.2929H215.561V74.8841H190.886V49.4863H212.369V37.8065H190.886V12.4088H215.541V0.729028H178.439V87.2929ZM135.867 39.396H128.785V12.4088H135.258C144.426 12.4088 145.881 17.153 145.881 25.9122C145.859 34.5226 144.534 39.396 135.867 39.396ZM158.327 26.1487C158.327 9.36133 151.115 0.729028 136.345 0.729028H116.317V87.2929H128.763V50.3445H136.215L147.812 87.3148H160.998L147.573 47.7896C155.525 43.4089 158.327 36.1099 158.327 26.1487ZM83.845 66.8757C83.845 72.8437 79.9333 75.635 75.4168 75.635C70.8982 75.635 66.9887 72.8437 66.9887 66.8757V21.1462C66.9887 15.1782 70.8982 12.3869 75.4168 12.3869C79.9333 12.3869 83.845 15.1782 83.845 21.1462V66.8757ZM75.4168 0C65.2721 0 54.5425 7.0407 54.5425 21.1462V66.8538C54.5425 80.9593 65.2942 88 75.4168 88C85.5594 88 96.2911 80.9593 96.2911 66.8538V21.1462C96.2911 7.0407 85.5594 0 75.4168 0ZM0 87.2929H12.4462V50.3445H33.9296V38.6647H12.4462V12.4088H37.0993V0.729028H0V87.2929Z" fill="white"/>
</g>
<defs>
<clipPath id="clip0_1_4646">
<rect width="530" height="88" fill="white"/>
</clipPath>
</defs>
</svg>
