<svg width="29" height="29" viewBox="0 0 29 29" fill="none" xmlns="http://www.w3.org/2000/svg">
<path d="M26.9698 8.66361C26.8236 8.0912 26.5978 7.54212 26.2992 7.03236C26.0123 6.50208 25.6455 6.01912 25.2117 5.60049C24.5827 4.9736 23.8378 4.47498 23.0186 4.13236C21.3695 3.45555 19.5202 3.45555 17.8711 4.13236C17.0967 4.46013 16.3853 4.92011 15.7686 5.49174L15.6779 5.60049L14.4998 6.77861L13.3217 5.60049L13.2311 5.49174C12.6144 4.92011 11.9029 4.46013 11.1286 4.13236C9.47947 3.45555 7.63016 3.45555 5.98106 4.13236C5.16179 4.47498 4.41693 4.9736 3.78794 5.60049C2.92766 6.43755 2.31868 7.49857 2.02982 8.66361C1.87614 9.25525 1.80298 9.86491 1.81232 10.4761C1.81232 11.0507 1.88482 11.6234 2.02982 12.1799C2.18176 12.7418 2.40084 13.2834 2.68232 13.793C2.9863 14.3168 3.35805 14.7983 3.78794 15.2249L14.4998 25.9367L25.2117 15.2249C25.6412 14.8025 26.0092 14.3186 26.2992 13.793C26.8879 12.7872 27.1947 11.6415 27.1873 10.4761C27.1967 9.86491 27.1236 9.25524 26.9698 8.66361ZM25.1573 11.618C24.9402 12.4462 24.5089 13.2026 23.9067 13.8111L14.4636 23.2361L5.02044 13.8111C4.71272 13.5012 4.44482 13.1542 4.22294 12.778C4.01415 12.4058 3.8499 12.0104 3.73357 11.5999C3.64069 11.1894 3.59208 10.7701 3.58857 10.3492C3.59102 9.91634 3.63963 9.48495 3.73357 9.06236C3.84649 8.65063 4.01091 8.2548 4.22294 7.88424C4.44044 7.50361 4.70869 7.15924 5.02044 6.85111C5.48606 6.39172 6.03308 6.02295 6.63356 5.76361C7.84361 5.27953 9.19352 5.27953 10.4036 5.76361C11.0017 6.01192 11.5418 6.37624 11.9986 6.83299L14.4636 9.31611L16.9286 6.83299C17.385 6.37543 17.9269 6.01208 18.5236 5.76361C19.7336 5.27953 21.0835 5.27953 22.2936 5.76361C22.8935 6.0228 23.4409 6.39255 23.9067 6.85111C24.2221 7.15017 24.4867 7.49817 24.6861 7.88424C25.1059 8.62457 25.3246 9.46191 25.3204 10.313C25.3451 10.7509 25.3085 11.1902 25.2117 11.618H25.1573Z" fill="black"/>
</svg>
