<svg width="23" height="23" viewBox="0 0 23 23" fill="none" xmlns="http://www.w3.org/2000/svg">
<path d="M21.7313 17.9867L17.9304 14.1859L15.0069 12.978C15.9804 11.5937 16.5019 9.94229 16.5 8.25C16.5 3.70092 12.7991 0 8.25 0C3.70092 0 0 3.70092 0 8.25C0 12.7991 3.70092 16.5 8.25 16.5C9.95702 16.5019 11.6221 15.9714 13.0134 14.9823L14.2181 17.898L18.0187 21.699C18.2625 21.9427 18.5519 22.1361 18.8704 22.268C19.1888 22.4 19.5302 22.4679 19.8749 22.4679C20.2196 22.4679 20.561 22.4 20.8795 22.2681C21.198 22.1362 21.4874 21.9428 21.7311 21.6991C21.9749 21.4553 22.1683 21.1659 22.3002 20.8475C22.4321 20.529 22.5 20.1876 22.5001 19.8429C22.5001 19.4982 22.4322 19.1568 22.3003 18.8383C22.1684 18.5198 21.975 18.2305 21.7313 17.9867ZM1.5 8.25C1.5 4.52812 4.52812 1.5 8.25 1.5C11.9719 1.5 15 4.52812 15 8.25C15 11.9719 11.9719 15 8.25 15C4.52812 15 1.5 11.9719 1.5 8.25ZM20.6705 20.6383C20.4594 20.849 20.1733 20.9673 19.875 20.9673C19.5767 20.9673 19.2906 20.849 19.0795 20.6383L15.4902 17.049L14.3701 14.338L17.0812 15.458L20.6706 19.0473C20.8813 19.2585 20.9995 19.5446 20.9995 19.8428C20.9995 20.1411 20.8812 20.4272 20.6705 20.6383Z" fill="#272727"/>
</svg>
