<svg width="26" height="26" viewBox="0 0 26 26" fill="none" xmlns="http://www.w3.org/2000/svg">
<path d="M24.75 7.41667V18.0833C24.75 19.8514 24.0476 21.5471 22.7974 22.7974C21.5471 24.0476 19.8514 24.75 18.0833 24.75H7.41667C5.64856 24.75 3.95286 24.0476 2.70262 22.7974C1.45238 21.5471 0.75 19.8514 0.75 18.0833V7.41667C0.75 5.64856 1.45238 3.95286 2.70262 2.70262C3.95286 1.45238 5.64856 0.75 7.41667 0.75H18.0833C19.8514 0.75 21.5471 1.45238 22.7974 2.70262C24.0476 3.95286 24.75 5.64856 24.75 7.41667Z" stroke="white" stroke-width="1.5" stroke-linecap="round" stroke-linejoin="round"/>
<path d="M11.4165 24.7498V12.7498C11.4165 9.8325 12.0832 7.4165 16.7498 7.4165" stroke="white" stroke-width="1.5" stroke-linecap="round" stroke-linejoin="round"/>
<path d="M8.75 14.0835H16.75" stroke="white" stroke-width="1.5" stroke-linecap="round" stroke-linejoin="round"/>
</svg>
