<svg width="26" height="26" viewBox="0 0 26 26" fill="none" xmlns="http://www.w3.org/2000/svg">
<path fill-rule="evenodd" clip-rule="evenodd" d="M7.5425 0.077C8.911 0.014 9.34733 0 12.8333 0C16.3193 0 16.7557 0.0151666 18.123 0.077C19.4903 0.138833 20.4237 0.357 21.2403 0.673167C22.0955 0.996333 22.8713 1.5015 23.513 2.15483C24.1663 2.79533 24.6703 3.57 24.9923 4.42633C25.3097 5.243 25.5267 6.17633 25.5897 7.54133C25.6527 8.91217 25.6667 9.3485 25.6667 12.8333C25.6667 16.3193 25.6515 16.7557 25.5897 18.1242C25.5278 19.4892 25.3097 20.4225 24.9923 21.2392C24.6703 22.0956 24.1655 22.8716 23.513 23.513C22.8713 24.1663 22.0955 24.6703 21.2403 24.9923C20.4237 25.3097 19.4903 25.5267 18.1253 25.5897C16.7557 25.6527 16.3193 25.6667 12.8333 25.6667C9.34733 25.6667 8.911 25.6515 7.5425 25.5897C6.1775 25.5278 5.24417 25.3097 4.4275 24.9923C3.57107 24.6703 2.79512 24.1655 2.15367 23.513C1.50078 22.8721 0.995534 22.0965 0.673167 21.2403C0.357 20.4237 0.14 19.4903 0.077 18.1253C0.014 16.7545 0 16.3182 0 12.8333C0 9.34733 0.0151666 8.911 0.077 7.54367C0.138833 6.17633 0.357 5.243 0.673167 4.42633C0.99601 3.5701 1.50164 2.79453 2.15483 2.15367C2.79538 1.50092 3.57055 0.995684 4.42633 0.673167C5.243 0.357 6.17633 0.14 7.54133 0.077H7.5425ZM18.0192 2.387C16.6658 2.32517 16.2598 2.31233 12.8333 2.31233C9.40683 2.31233 9.00083 2.32517 7.6475 2.387C6.39567 2.44417 5.71667 2.653 5.264 2.82917C4.6655 3.0625 4.23733 3.339 3.78817 3.78817C3.36239 4.20239 3.03471 4.70666 2.82917 5.264C2.653 5.71667 2.44417 6.39567 2.387 7.6475C2.32517 9.00083 2.31233 9.40683 2.31233 12.8333C2.31233 16.2598 2.32517 16.6658 2.387 18.0192C2.44417 19.271 2.653 19.95 2.82917 20.4027C3.0345 20.9592 3.36233 21.4643 3.78817 21.8785C4.20233 22.3043 4.7075 22.6322 5.264 22.8375C5.71667 23.0137 6.39567 23.2225 7.6475 23.2797C9.00083 23.3415 9.40567 23.3543 12.8333 23.3543C16.261 23.3543 16.6658 23.3415 18.0192 23.2797C19.271 23.2225 19.95 23.0137 20.4027 22.8375C21.0012 22.6042 21.4293 22.3277 21.8785 21.8785C22.3043 21.4643 22.6322 20.9592 22.8375 20.4027C23.0137 19.95 23.2225 19.271 23.2797 18.0192C23.3415 16.6658 23.3543 16.2598 23.3543 12.8333C23.3543 9.40683 23.3415 9.00083 23.2797 7.6475C23.2225 6.39567 23.0137 5.71667 22.8375 5.264C22.6042 4.6655 22.3277 4.23733 21.8785 3.78817C21.4642 3.36242 20.96 3.03475 20.4027 2.82917C19.95 2.653 19.271 2.44417 18.0192 2.387ZM11.1942 16.7895C12.1096 17.1706 13.1289 17.222 14.0781 16.935C15.0272 16.648 15.8473 16.0404 16.3982 15.216C16.9491 14.3915 17.1967 13.4013 17.0987 12.4146C17.0007 11.4279 16.5632 10.5058 15.8608 9.80583C15.4131 9.35839 14.8717 9.01578 14.2757 8.80267C13.6797 8.58956 13.0438 8.51125 12.4139 8.57338C11.784 8.63552 11.1757 8.83654 10.6328 9.16199C10.0899 9.48743 9.62587 9.9292 9.27419 10.4555C8.9225 10.9818 8.69189 11.5795 8.59894 12.2056C8.50598 12.8317 8.55301 13.4707 8.73663 14.0764C8.92025 14.6822 9.23589 15.2397 9.66084 15.7088C10.0858 16.178 10.6095 16.547 11.1942 16.7895ZM8.169 8.169C8.78153 7.55647 9.50871 7.07059 10.309 6.73909C11.1093 6.40759 11.9671 6.23697 12.8333 6.23697C13.6996 6.23697 14.5573 6.40759 15.3577 6.73909C16.158 7.07059 16.8851 7.55647 17.4977 8.169C18.1102 8.78153 18.5961 9.50871 18.9276 10.309C19.2591 11.1093 19.4297 11.9671 19.4297 12.8333C19.4297 13.6996 19.2591 14.5573 18.9276 15.3577C18.5961 16.158 18.1102 16.8851 17.4977 17.4977C16.2606 18.7347 14.5828 19.4297 12.8333 19.4297C11.0839 19.4297 9.40606 18.7347 8.169 17.4977C6.93194 16.2606 6.23697 14.5828 6.23697 12.8333C6.23697 11.0839 6.93194 9.40606 8.169 8.169ZM20.8927 7.21933C21.0445 7.07615 21.166 6.90396 21.25 6.71297C21.3341 6.52198 21.3789 6.31606 21.382 6.10742C21.385 5.89877 21.3462 5.69164 21.2677 5.49828C21.1893 5.30492 21.0728 5.12926 20.9253 4.98171C20.7777 4.83416 20.6021 4.71772 20.4087 4.63927C20.2154 4.56082 20.0082 4.52197 19.7996 4.52501C19.5909 4.52806 19.385 4.57293 19.194 4.65698C19.003 4.74103 18.8309 4.86254 18.6877 5.01433C18.4092 5.30953 18.2567 5.70164 18.2627 6.10742C18.2686 6.5132 18.4324 6.90069 18.7193 7.18765C19.0063 7.47461 19.3938 7.63843 19.7996 7.64435C20.2054 7.65026 20.5975 7.4978 20.8927 7.21933Z" fill="white"/>
</svg>
