<svg width="28" height="23" viewBox="0 0 28 23" fill="none" xmlns="http://www.w3.org/2000/svg">
<path d="M26.6667 1.01173C25.5494 1.79979 24.3125 2.40253 23.0033 2.79673C22.3007 1.98883 21.3669 1.41621 20.3282 1.15631C19.2895 0.896419 18.1961 0.961793 17.1958 1.34359C16.1954 1.72539 15.3365 2.4052 14.7351 3.29107C14.1338 4.17694 13.819 5.22612 13.8333 6.29673V7.4634C11.7831 7.51656 9.75149 7.06185 7.91951 6.13975C6.08753 5.21766 4.51204 3.85681 3.33333 2.1784C3.33333 2.1784 -1.33333 12.6784 9.16667 17.3451C6.76395 18.976 3.90168 19.7938 1 19.6784C11.5 25.5117 24.3333 19.6784 24.3333 6.26173C24.3323 5.93676 24.301 5.61259 24.24 5.2934C25.4307 4.11914 26.271 2.63656 26.6667 1.01173V1.01173Z" stroke="white" stroke-width="2" stroke-linecap="round" stroke-linejoin="round"/>
</svg>
