<svg width="24" height="24" viewBox="0 0 24 24" fill="none" xmlns="http://www.w3.org/2000/svg">
<path fill-rule="evenodd" clip-rule="evenodd" d="M19.8955 3.401C18.8213 2.31972 17.5432 1.46235 16.1353 0.878563C14.7274 0.294772 13.2176 -0.00383655 11.6935 3.72118e-05C5.30229 3.72118e-05 0.0994584 5.20158 0.0968751 11.5953C0.0968751 13.6387 0.630333 15.6331 1.64429 17.3923L0 23.3999L6.14704 21.7866C7.84738 22.7122 9.75234 23.1975 11.6883 23.1984H11.6935C18.0833 23.1984 23.2862 17.9968 23.2887 11.6031C23.2931 10.0795 22.9955 8.57024 22.4131 7.16241C21.8307 5.75458 20.975 4.47614 19.8955 3.401ZM11.6935 21.2415H11.6896C9.96329 21.2417 8.26878 20.7772 6.78383 19.8969L6.4325 19.6876L2.78483 20.6447L3.75746 17.0888L3.52883 16.7245C2.56368 15.188 2.05276 13.4098 2.05504 11.5953C2.05763 6.28141 6.38083 1.9582 11.6973 1.9582C12.9635 1.95539 14.2176 2.20373 15.3872 2.68884C16.5567 3.17395 17.6184 3.8862 18.5109 4.78437C19.4081 5.67826 20.1192 6.74111 20.6032 7.91149C21.0872 9.08188 21.3344 10.3366 21.3306 11.6031C21.328 16.917 17.0048 21.2415 11.6935 21.2415ZM16.9802 14.0224C16.6896 13.8764 15.2662 13.1763 15.0001 13.0795C14.7353 12.9826 14.5429 12.9348 14.3491 13.2241C14.1554 13.5135 13.6 14.1657 13.4307 14.3595C13.2615 14.5532 13.0923 14.5765 12.803 14.4318C12.5137 14.2872 11.5798 13.981 10.4728 12.9942C9.61129 12.2257 9.03004 11.2776 8.86083 10.987C8.69162 10.6963 8.84275 10.54 8.98871 10.3954C9.11917 10.2662 9.27804 10.057 9.42271 9.88774C9.56738 9.71854 9.61517 9.59841 9.71204 9.40466C9.80892 9.21091 9.76112 9.0417 9.6875 8.89704C9.61517 8.75108 9.03521 7.32508 8.79367 6.74512C8.55987 6.18325 8.32092 6.25816 8.14267 6.25041C7.95806 6.24286 7.7733 6.23942 7.58854 6.24008C7.44162 6.24382 7.29706 6.27788 7.16392 6.34012C7.03078 6.40235 6.91193 6.49142 6.81483 6.60175C6.54875 6.89237 5.80088 7.59245 5.80088 9.01845C5.80088 10.4445 6.83937 11.8227 6.98404 12.0164C7.12871 12.2102 9.02746 15.1358 11.9337 16.3913C12.626 16.6897 13.166 16.8679 13.5857 17.0022C14.2794 17.2231 14.911 17.1908 15.4109 17.1172C15.9676 17.0345 17.1249 16.4171 17.3665 15.7403C17.608 15.0635 17.608 14.4835 17.5357 14.3621C17.4633 14.2407 17.2683 14.167 16.9802 14.0224Z" fill="white"/>
</svg>
