<svg width="24" height="26" viewBox="0 0 24 26" fill="none" xmlns="http://www.w3.org/2000/svg">
<path d="M10.07 0.703241C10.6105 0.249021 11.294 0 12 0C12.706 0 13.3895 0.249021 13.93 0.703241L22.93 8.27124C23.265 8.55275 23.5344 8.90414 23.7192 9.30077C23.9041 9.6974 23.9999 10.1297 24 10.5672V23.1372C24 23.6677 23.7893 24.1764 23.4142 24.5515C23.0391 24.9265 22.5304 25.1372 22 25.1372H16.5C15.9696 25.1372 15.4609 24.9265 15.0858 24.5515C14.7107 24.1764 14.5 23.6677 14.5 23.1372V16.1372H9.5V23.1372C9.5 23.6677 9.28929 24.1764 8.91421 24.5515C8.53914 24.9265 8.03043 25.1372 7.5 25.1372H2C1.46957 25.1372 0.960859 24.9265 0.585786 24.5515C0.210714 24.1764 0 23.6677 0 23.1372V10.5662C0.00011066 10.1287 0.0959458 9.6964 0.280785 9.29977C0.465624 8.90314 0.734993 8.55175 1.07 8.27024L10.07 0.702241V0.703241Z" fill="#002482"/>
</svg>
