<svg width="30" height="30" viewBox="0 0 30 30" fill="none" xmlns="http://www.w3.org/2000/svg">
<path d="M28.975 23.9823L23.9072 18.9145L20.0093 17.3041C21.3072 15.4583 22.0025 13.2564 22 11C22 4.93456 17.0654 0 11 0C4.93456 0 0 4.93456 0 11C0 17.0654 4.93456 22 11 22C13.276 22.0026 15.4962 21.2952 17.3512 19.9764L18.9574 23.8639L24.025 28.9319C24.35 29.257 24.7358 29.5148 25.1605 29.6907C25.5851 29.8666 26.0403 29.9571 26.4999 29.9572C26.9595 29.9572 27.4147 29.8667 27.8393 29.6908C28.264 29.5149 28.6498 29.2571 28.9748 28.9321C29.2999 28.6071 29.5577 28.2213 29.7336 27.7966C29.9095 27.372 30.0001 26.9168 30.0001 26.4572C30.0001 25.9976 29.9096 25.5424 29.7337 25.1178C29.5578 24.6931 29.3 24.3073 28.975 23.9823ZM2 11C2 6.0375 6.0375 2 11 2C15.9625 2 20 6.0375 20 11C20 15.9625 15.9625 20 11 20C6.0375 20 2 15.9625 2 11ZM27.5607 27.5177C27.2792 27.7986 26.8977 27.9564 26.5 27.9564C26.1023 27.9564 25.7208 27.7986 25.4393 27.5177L20.6536 22.732L19.1602 19.1173L22.775 20.6107L27.5608 25.3964C27.8417 25.678 27.9994 26.0594 27.9994 26.4571C27.9993 26.8548 27.8416 27.2362 27.5607 27.5177Z" fill="#002482"/>
</svg>
